<svg width="181" height="181" viewBox="0 0 181 181" fill="none" xmlns="http://www.w3.org/2000/svg">
<path d="M90.5008 181C40.5981 181 0 140.402 0 90.4991C0 40.5981 40.5981 0 90.5008 0C140.402 0 181 40.5981 181 90.4991C181 140.402 140.402 181 90.5008 181Z" fill="white"/>
<path d="M100.025 71.2847C98.6079 71.2847 97.4551 70.1319 97.4551 68.715C97.4551 67.2982 98.6063 66.147 100.025 66.147C101.44 66.147 102.591 67.2982 102.591 68.715C102.591 70.1319 101.44 71.2847 100.025 71.2847Z" fill="#294C96"/>
<path d="M80.7647 71.2847C79.3462 71.2847 78.1934 70.1319 78.1934 68.715C78.1934 67.2982 79.3462 66.147 80.7647 66.147C82.1799 66.147 83.3311 67.2982 83.3311 68.715C83.3327 70.1319 82.1815 71.2847 80.7647 71.2847Z" fill="#294C96"/>
<path d="M89.147 69.3923C88.678 69.3923 88.2959 69.0102 88.2959 68.5412C88.2959 68.0722 88.678 67.6918 89.147 67.6918C89.616 67.6918 89.9965 68.0722 89.9965 68.5412C89.9965 69.0119 89.616 69.3923 89.147 69.3923Z" fill="#294C96"/>
<path d="M91.5484 69.3923C91.0794 69.3923 90.6973 69.0102 90.6973 68.5412C90.6973 68.0722 91.0794 67.6918 91.5484 67.6918C92.0174 67.6918 92.3978 68.0722 92.3978 68.5412C92.3978 69.0119 92.0157 69.3923 91.5484 69.3923Z" fill="#294C96"/>
<path d="M90.5001 84.5562C78.1322 84.5562 68.0684 74.776 68.0684 62.7575C68.0684 50.7356 78.1322 40.9554 90.5001 40.9554C102.871 40.9554 112.933 50.7356 112.933 62.7575C112.933 74.776 102.871 84.5562 90.5001 84.5562ZM90.5001 44.3812C80.0197 44.3812 71.4941 52.6247 71.4941 62.7558C71.4941 72.8869 80.0197 81.1305 90.5001 81.1305C100.98 81.1305 109.508 72.8869 109.508 62.7558C109.508 52.6264 100.98 44.3812 90.5001 44.3812Z" fill="#294C96"/>
<path d="M90.4999 85.235C77.7549 85.235 67.3877 75.1514 67.3877 62.7557C67.3877 50.3583 77.7549 40.2732 90.4999 40.2732C103.245 40.2732 113.612 50.3583 113.612 62.7557C113.614 75.1514 103.245 85.235 90.4999 85.235ZM90.4999 41.6343C78.5043 41.6343 68.7455 51.1094 68.7455 62.7574C68.7455 74.402 78.5043 83.8772 90.4999 83.8772C102.496 83.8772 112.254 74.4037 112.254 62.7574C112.254 51.1094 102.496 41.6343 90.4999 41.6343ZM90.4999 81.8109C79.6457 81.8109 70.8134 73.264 70.8134 62.7574C70.8134 52.2508 79.644 43.7022 90.4999 43.7022C101.356 43.7022 110.187 52.2508 110.187 62.7574C110.187 73.264 101.356 81.8109 90.4999 81.8109ZM90.4999 45.0616C80.3951 45.0616 72.1728 53.0002 72.1728 62.7574C72.1728 72.5146 80.3951 80.4515 90.4999 80.4515C100.605 80.4515 108.827 72.5129 108.827 62.7574C108.827 53.0002 100.605 45.0616 90.4999 45.0616Z" fill="#294C96"/>
<path d="M90.3704 92.3012C87.1136 92.3012 84.4619 89.7578 84.4619 86.6355C84.4619 85.399 85.0162 83.9297 85.8755 82.8933L88.5173 85.076C88.1648 85.5023 87.8876 86.1861 87.8876 86.6371C87.8876 87.8703 88.9995 88.8756 90.3687 88.8756C91.7364 88.8756 92.8499 87.8703 92.8499 86.6371C92.8499 86.0074 92.5711 85.5482 92.3382 85.2744L94.9423 83.0491C95.8032 84.056 96.2772 85.3285 96.2772 86.6355C96.2788 89.7578 93.6272 92.3012 90.3704 92.3012Z" fill="#294C96"/>
<path d="M90.3705 92.9801C86.7382 92.9801 83.7832 90.1333 83.7832 86.6355C83.7832 85.2498 84.3998 83.6116 85.3542 82.4604L85.7871 81.9373L89.4751 84.9841L89.0422 85.5089C88.7716 85.8369 88.5683 86.3764 88.5683 86.6371C88.5683 87.4964 89.3768 88.195 90.3705 88.195C91.3627 88.195 92.1711 87.4964 92.1711 86.6371C92.1711 86.2157 91.9808 85.9025 91.8201 85.7155L91.3807 85.199L95.0179 82.093L95.459 82.6096C96.4249 83.7395 96.9579 85.1694 96.9579 86.6388C96.9595 90.1333 94.0045 92.9801 90.3705 92.9801ZM86.0035 83.8789C85.4755 84.7251 85.1426 85.7664 85.1426 86.6355C85.1426 89.3839 87.4877 91.6207 90.3705 91.6207C93.2534 91.6207 95.5984 89.3839 95.5984 86.6355C95.5984 85.7155 95.3294 84.8136 94.8326 84.0363L93.2353 85.4006C93.4026 85.7303 93.5306 86.1435 93.5306 86.6355C93.5306 88.2442 92.1137 89.5528 90.3705 89.5528C88.6274 89.5528 87.2089 88.2442 87.2089 86.6355C87.2089 86.2157 87.3679 85.6827 87.6172 85.2121L86.0035 83.8789Z" fill="#294C96"/>
<path d="M94.0625 72.1686C92.9818 71.4569 91.7568 71.2174 90.9352 71.5536C90.7237 71.6405 90.5466 71.7554 90.4023 71.8767C90.2563 71.7554 90.0809 71.6405 89.8693 71.5536C89.0478 71.2174 87.8228 71.4585 86.7421 72.1686C86.0501 72.6195 84.3594 73.5329 84.3594 73.5329C84.5283 73.6789 85.3777 74.4644 85.5975 74.7957C86.3912 75.9895 87.5883 77.3358 90.4023 77.3358C93.2163 77.3358 94.4151 75.9895 95.2071 74.7957C95.4301 74.4644 96.1139 73.6805 96.2812 73.5329C96.2812 73.5329 94.7529 72.6195 94.0625 72.1686Z" fill="#294C96"/>
<path d="M116.301 100.181C110.545 100.181 105.255 98.9264 100.581 96.4518C96.1206 94.0937 93.3476 91.2469 92.0898 89.7579L94.7054 87.5474C95.8025 88.8445 98.2328 91.3338 102.182 93.423C109.628 97.3619 118.975 97.8211 129.177 94.6611L130.192 97.9326C125.381 99.4232 120.709 100.181 116.301 100.181Z" fill="#294C96"/>
<path d="M116.303 100.861C110.436 100.861 105.041 99.5806 100.267 97.0536C95.708 94.6446 92.8629 91.7257 91.5723 90.199L91.1328 89.6808L94.7864 86.5929L95.2259 87.1111C96.2918 88.3721 98.6565 90.7893 102.5 92.8244C109.785 96.6764 119.035 97.0946 128.978 94.0149L129.627 93.8132L131.044 98.3835L130.393 98.5852C125.511 100.094 120.77 100.861 116.303 100.861ZM93.0564 89.8316C94.4388 91.3633 97.0134 93.7968 100.9 95.8516C108.829 100.048 118.648 100.653 129.34 97.4816L128.73 95.5072C118.678 98.4803 109.309 97.9621 101.866 94.0231C98.2859 92.1291 95.9163 89.9087 94.6356 88.4967L93.0564 89.8316Z" fill="#294C96"/>
<path d="M107.78 92.4604C104.058 93.236 99.1266 93.2721 94.6793 90.0826L96.6767 87.2981C101.334 90.6368 106.923 89.3758 109.891 88.2935C104.31 82.936 99.0971 83.2968 95.5845 84.6595L94.3447 81.4618C98.346 79.9154 106.222 78.6724 114.107 87.7671C114.445 88.1574 114.589 88.6805 114.499 89.1888C114.408 89.6972 114.094 90.1416 113.641 90.3892C113.438 90.4991 111.088 91.7716 107.78 92.4604Z" fill="#294C96"/>
<path d="M103.691 93.5771C100.17 93.5771 97.0034 92.5866 94.2828 90.6352L93.7285 90.2383L96.518 86.3486L97.0706 86.7454C98.9499 88.0917 101.183 88.7756 103.705 88.7756C105.536 88.7756 107.244 88.4148 108.573 88.0147C104.54 84.5398 100.137 83.6215 95.8276 85.2925L95.1946 85.5385L93.4629 81.0715L94.0975 80.8271C96.0375 80.0777 98.043 79.6973 100.057 79.6973C105.332 79.6973 110.232 82.262 114.617 87.321C115.091 87.8687 115.291 88.5919 115.163 89.3069C115.035 90.0252 114.597 90.6368 113.963 90.9844C113.863 91.0402 111.382 92.4046 107.913 93.1261C106.48 93.4246 105.058 93.5771 103.691 93.5771ZM95.6357 89.9136C98.9991 92.0947 103.136 92.7342 107.641 91.7946C110.909 91.114 113.213 89.8464 113.309 89.7923C113.581 89.6431 113.773 89.3741 113.827 89.0675C113.881 88.7592 113.796 88.446 113.591 88.2098C109.475 83.4624 104.922 81.0551 100.057 81.0551C98.43 81.0551 96.8082 81.3273 95.2274 81.8619L95.9768 83.7937C100.893 82.1505 105.896 83.5182 110.36 87.8015L111.146 88.5575L110.121 88.9314C108.615 89.4807 106.28 90.1334 103.705 90.1334C101.137 90.1334 98.8334 89.4938 96.841 88.2295L95.6357 89.9136Z" fill="#294C96"/>
<path d="M74.2214 92.4604C77.9439 93.236 82.875 93.2721 87.3223 90.0826L85.3249 87.2981C80.6677 90.6368 75.079 89.3758 72.1109 88.2935C77.6913 82.936 82.9045 83.2968 86.4171 84.6595L87.6568 81.4618C83.6556 79.9154 75.7793 78.6724 67.8948 87.7671C67.557 88.1574 67.4127 88.6805 67.5029 89.1888C67.5931 89.6972 67.9079 90.1416 68.3605 90.3892C68.5622 90.4991 70.9122 91.7716 74.2214 92.4604Z" fill="#294C96"/>
<path d="M78.31 93.5771C76.9407 93.5771 75.5206 93.4246 74.0841 93.1261C70.6141 92.4029 68.1346 91.0386 68.0313 90.9812C67.4016 90.6368 66.9621 90.0252 66.8358 89.3069C66.7079 88.5952 66.9064 87.872 67.3819 87.3227C71.7686 82.2621 76.6685 79.6973 81.9439 79.6973C83.9577 79.6973 85.9632 80.0777 87.9032 80.8271L88.5378 81.0715L86.8061 85.5385L86.1731 85.2925C81.8603 83.6215 77.4605 84.5398 73.4281 88.0147C74.7564 88.4148 76.4651 88.7756 78.2952 88.7756C80.819 88.7756 83.0509 88.0934 84.9301 86.7454L85.4827 86.3486L88.2705 90.2383L87.7179 90.6352C84.9973 92.5866 81.8308 93.5771 78.31 93.5771ZM81.9423 81.0551C77.0768 81.0551 72.5229 83.4624 68.4068 88.2098C68.2019 88.446 68.1166 88.7592 68.1723 89.0658C68.2264 89.3741 68.42 89.6447 68.6873 89.7906C68.7873 89.8464 71.0913 91.114 74.3595 91.7946C78.8626 92.7342 83 92.0963 86.3634 89.9136L85.1564 88.2311C83.1656 89.4955 80.86 90.135 78.292 90.135C75.7174 90.135 73.3822 89.4807 71.8768 88.933L70.8519 88.5591L71.6374 87.8032C76.0994 83.5198 81.101 82.1522 86.0206 83.7953L86.77 81.8636C85.1908 81.3273 83.569 81.0551 81.9423 81.0551Z" fill="#294C96"/>
<path d="M64.6983 100.181C60.2887 100.181 55.6151 99.4215 50.8037 97.9325L51.8221 94.6609C62.022 97.8242 71.3709 97.3634 78.8159 93.4228C82.7696 91.332 85.1949 88.8427 86.2936 87.5472L88.9076 89.7578C87.6547 91.2451 84.8834 94.0886 80.418 96.4517C75.7444 98.9262 70.4542 100.181 64.6983 100.181Z" fill="#294C96"/>
<path d="M64.6978 100.861C60.2292 100.861 55.4867 100.096 50.6032 98.5836L49.9521 98.3819L51.3739 93.8116L52.0233 94.0133C61.9576 97.093 71.2113 96.6781 78.4989 92.8228C82.3378 90.7926 84.7058 88.3722 85.775 87.1095L86.2145 86.5913L89.8664 89.6775L89.4286 90.1957C88.1462 91.7175 85.3093 94.6332 80.7357 97.052C75.9637 99.579 70.5652 100.861 64.6978 100.861ZM51.656 97.4816C62.361 100.653 72.1772 100.046 80.0994 95.8516C84.0006 93.7903 86.5687 91.36 87.9445 89.8333L86.3654 88.4985C85.0797 89.912 82.7085 92.134 79.1335 94.0248C71.6902 97.9654 62.3167 98.4836 52.2709 95.5089L51.656 97.4816Z" fill="#294C96"/>
<path d="M102.555 53.5168C98.4945 53.5168 94.5818 52.3197 91.2348 50.0551L90.6953 49.6894L92.0646 47.6658L92.6041 48.0314C96.3873 50.5946 101.11 51.5916 105.633 50.8061L106.274 50.6962L106.697 53.1068L106.053 53.2167C104.892 53.4152 103.714 53.5168 102.555 53.5168Z" fill="#294C96"/>
<path d="M102.553 54.1974C98.3563 54.1974 94.3107 52.9593 90.8539 50.6176L90.3143 50.2519C90.1651 50.1502 90.0618 49.9945 90.0274 49.8173C89.9946 49.6402 90.0307 49.4566 90.1323 49.3073L91.5016 47.2837C91.7131 46.9738 92.1363 46.8918 92.4462 47.1017L92.9857 47.4674C96.5655 49.8928 101.211 50.88 105.518 50.1355L106.157 50.0239C106.515 49.96 106.879 50.206 106.941 50.5766L107.364 52.9872C107.395 53.1643 107.354 53.3479 107.251 53.4955C107.146 53.6431 106.989 53.7432 106.81 53.7743L106.165 53.8858C104.963 54.0925 103.748 54.1974 102.553 54.1974ZM91.6377 49.5074C95.7784 52.3033 100.841 53.407 105.908 52.5526L105.719 51.4818C104.689 51.6589 103.635 51.7491 102.585 51.7491C98.8613 51.7491 95.2864 50.6635 92.2461 48.6104L91.6377 49.5074Z" fill="#294C96"/>
<path d="M79.2851 54.8385C76.4875 54.8385 73.7801 54.2793 71.2383 53.1757L72.2124 50.934C74.4491 51.9032 76.8285 52.3952 79.2851 52.3952C83.8865 52.3952 88.2518 50.6454 91.5775 47.4674C92.9058 46.1981 94.0275 44.737 94.9097 43.1266L95.2229 42.5576L97.3679 43.7285L97.0563 44.2991C96.0576 46.1276 94.7834 47.7888 93.2682 49.2368C89.485 52.8494 84.5195 54.8385 79.2851 54.8385Z" fill="#294C96"/>
<path d="M79.2849 55.5175C76.3938 55.5175 73.5962 54.9402 70.9675 53.7989C70.6231 53.6497 70.4657 53.2496 70.6149 52.9052L71.5873 50.6618C71.7366 50.3175 72.1351 50.1584 72.4811 50.3093C74.6359 51.2423 76.9251 51.7146 79.2849 51.7146C83.7109 51.7146 87.9106 50.0321 91.1083 46.9754C92.3858 45.7554 93.4664 44.35 94.3159 42.7987L94.6275 42.2296C94.8078 41.9 95.2194 41.7803 95.549 41.9591L97.694 43.13C97.8514 43.2169 97.9695 43.3628 98.0203 43.535C98.0728 43.7088 98.0515 43.8941 97.9646 44.0532L97.653 44.6238C96.6183 46.5146 95.3031 48.2316 93.737 49.7255C89.8292 53.4611 84.6964 55.5175 79.2849 55.5175ZM72.1367 52.8117C74.4096 53.7054 76.8087 54.158 79.2849 54.158C84.3455 54.158 89.1438 52.2361 92.7974 48.7432C94.2552 47.351 95.4818 45.7554 96.446 43.9958L95.4949 43.4776C94.5782 45.142 93.4172 46.6491 92.048 47.9577C88.596 51.2571 84.0634 53.0741 79.2849 53.0741C76.9661 53.0741 74.7096 52.651 72.5696 51.8147L72.1367 52.8117Z" fill="#294C96"/>
<path d="M90.3739 147.043C73.2193 147.043 59.2607 133.088 59.2607 115.928C59.2607 109.262 61.3467 102.901 65.2955 97.5308L68.3456 99.7725C64.8789 104.487 63.0472 110.076 63.0472 115.928C63.0472 130.996 75.3052 143.257 90.3739 143.257C105.444 143.257 117.702 130.994 117.702 115.928C117.702 110.058 115.859 104.458 112.373 99.7348L115.418 97.4866C119.39 102.867 121.487 109.241 121.487 115.928C121.487 133.088 107.53 147.043 90.3739 147.043Z" fill="#294C96"/>
<path d="M90.3731 147.724C72.843 147.724 58.5811 133.46 58.5811 115.93C58.5811 109.118 60.7129 102.616 64.747 97.129L65.1504 96.5813L69.2959 99.6298L68.8926 100.178C65.5128 104.774 63.7269 110.22 63.7269 115.93C63.7269 130.625 75.6816 142.58 90.3747 142.58C105.068 142.58 117.024 130.625 117.024 115.93C117.024 110.207 115.227 104.746 111.826 100.14L111.422 99.5937L115.561 96.5387L115.965 97.0847C120.022 102.58 122.167 109.097 122.167 115.93C122.167 133.46 107.905 147.724 90.3731 147.724ZM65.4472 98.4868C61.8428 103.62 59.9422 109.636 59.9422 115.93C59.9422 132.712 73.594 146.364 90.3747 146.364C107.157 146.364 120.807 132.711 120.807 115.93C120.807 109.617 118.895 103.585 115.268 98.4425L113.315 99.884C116.632 104.607 118.382 110.14 118.382 115.93C118.382 131.374 105.817 143.939 90.3731 143.939C74.9289 143.939 62.3659 131.374 62.3659 115.93C62.3659 110.156 64.1042 104.636 67.4003 99.925L65.4472 98.4868Z" fill="#294C96"/>
<path d="M90.3739 147.043C73.2193 147.043 59.2607 133.088 59.2607 115.928C59.2607 109.262 61.3467 102.901 65.2955 97.5308L68.3456 99.7725C64.8789 104.487 63.0472 110.076 63.0472 115.928C63.0472 130.996 75.3052 143.257 90.3739 143.257C105.444 143.257 117.702 130.994 117.702 115.928C117.702 110.058 115.859 104.458 112.373 99.7348L115.418 97.4866C119.39 102.867 121.487 109.241 121.487 115.928C121.487 133.088 107.53 147.043 90.3739 147.043Z" fill="#294C96"/>
<path d="M90.3731 147.724C72.843 147.724 58.5811 133.46 58.5811 115.93C58.5811 109.118 60.7129 102.616 64.747 97.129L65.1504 96.5813L69.2959 99.6298L68.8926 100.178C65.5128 104.774 63.7269 110.22 63.7269 115.93C63.7269 130.625 75.6816 142.58 90.3747 142.58C105.068 142.58 117.024 130.625 117.024 115.93C117.024 110.207 115.227 104.746 111.826 100.14L111.422 99.5937L115.561 96.5387L115.965 97.0847C120.022 102.58 122.167 109.097 122.167 115.93C122.167 133.46 107.905 147.724 90.3731 147.724ZM65.4472 98.4868C61.8428 103.62 59.9422 109.636 59.9422 115.93C59.9422 132.712 73.594 146.364 90.3747 146.364C107.157 146.364 120.807 132.711 120.807 115.93C120.807 109.617 118.895 103.585 115.268 98.4425L113.315 99.884C116.632 104.607 118.382 110.14 118.382 115.93C118.382 131.374 105.817 143.939 90.3731 143.939C74.9289 143.939 62.3659 131.374 62.3659 115.93C62.3659 110.156 64.1042 104.636 67.4003 99.925L65.4472 98.4868Z" fill="#294C96"/>
<path d="M129.668 87.585C129.358 86.9143 128.968 86.1223 128.553 85.2729C127.438 82.9951 126.048 80.1597 125.584 78.4182C123.36 70.0844 123.398 65.1288 123.435 60.3354C123.465 56.2456 123.494 52.3788 122.017 47.1099C119.931 39.6453 114.183 33.4121 105.913 29.5961C92.8617 22.8596 90.3084 15.0276 90.3084 15.0276C90.3084 15.0276 87.5567 22.8432 74.5444 29.5978C66.4156 33.6925 60.4169 40.2356 58.4934 47.1083C57.0159 52.3772 57.0454 56.2423 57.0782 60.3305C57.1143 65.1271 57.152 70.0828 54.9283 78.4198C54.1756 81.2453 52.034 85.9616 51.2321 87.7195C45.5352 95.8171 42.5244 105.341 42.5244 115.281C42.5244 141.733 64.0476 163.253 90.497 163.253C116.95 163.253 138.471 141.733 138.471 115.281C138.471 105.289 135.428 95.7105 129.668 87.585ZM90.497 159.628C66.0466 159.628 46.1518 139.736 46.1518 115.281C46.1518 106.04 48.9641 97.1848 54.2888 89.6742C54.3527 89.5791 54.4101 89.484 54.4577 89.3823C55.7958 86.4552 57.6636 82.2293 58.4294 79.3546C60.7793 70.5436 60.7384 65.1041 60.7006 60.3043C60.6711 56.3112 60.6449 52.8626 61.983 48.0857C63.6229 42.2248 68.859 36.5672 76.0055 32.9235C76.017 32.9169 76.0268 32.912 76.0383 32.9054L77.2994 32.2954C77.4633 32.2134 77.6093 32.1133 77.7355 31.9985C84.8411 28.0399 88.475 23.9763 90.3362 20.8245C92.2057 24.2108 96.1266 28.6254 104.323 32.853C111.684 36.2524 116.728 41.6623 118.524 48.0873C119.864 52.8658 119.837 56.3145 119.81 60.3092C119.772 65.1074 119.732 70.5469 122.082 79.3562C122.638 81.4405 124.052 84.325 125.301 86.8701C125.759 87.8097 126.185 88.6739 126.5 89.3725C126.587 89.5693 126.708 89.7431 126.856 89.889C132.082 97.357 134.844 106.13 134.844 115.281C134.844 139.736 114.951 159.628 90.497 159.628Z" fill="#294C96"/>
<path d="M90.4968 165.972C62.5437 165.972 39.8037 143.232 39.8037 115.281C39.8037 104.871 42.9342 94.8775 48.859 86.365C50.6792 82.3654 51.8354 79.4562 52.2978 77.7196C54.4264 69.7417 54.3903 64.9713 54.3559 60.3584C54.3247 56.2538 54.2902 52.0164 55.8727 46.3736C57.998 38.7811 64.5197 31.6017 73.3176 27.1692C85.0082 21.1001 90.4132 15.026 90.4132 15.026C90.4132 15.026 95.4443 21.1328 107.158 27.179C116.084 31.2951 122.328 38.1317 124.632 46.3769C126.215 52.0131 126.182 56.2522 126.152 60.3518C126.116 64.9697 126.079 69.7384 128.21 77.718C128.604 79.1906 129.973 81.9915 130.974 84.0348L131.206 84.5136C131.506 85.1269 131.789 85.7025 132.03 86.2191C138.023 94.7644 141.188 104.809 141.188 115.282C141.19 143.232 118.45 165.972 90.4968 165.972ZM77.2631 35.3324L77.2401 35.3439C70.761 38.6482 66.0366 43.6842 64.6017 48.817C63.3685 53.225 63.3915 56.3407 63.421 60.283C63.4587 65.2501 63.503 70.8798 61.058 80.0548C60.2381 83.1295 58.3095 87.4948 56.9321 90.5122C56.8156 90.7614 56.691 90.9779 56.5467 91.1894C51.5123 98.2933 48.8722 106.604 48.8722 115.281C48.8722 138.234 67.5452 156.909 90.4984 156.909C113.452 156.909 132.125 138.234 132.125 115.281C132.125 106.755 129.57 98.5689 124.734 91.5978C124.434 91.2567 124.193 90.8762 124.011 90.463C123.766 89.9235 123.432 89.2397 123.068 88.4935L122.856 88.0589C121.557 85.4138 120.082 82.4064 119.454 80.0565C117.007 70.8831 117.051 65.2534 117.089 60.2862C117.118 56.344 117.141 53.2266 115.905 48.8187C114.327 43.1743 109.808 38.3809 103.181 35.3209C97.5236 32.4052 93.155 30.526 90.2197 26.9412C87.5483 30.1062 83.9259 31.6329 79.2719 34.2534C79.0407 34.4305 78.7882 34.5879 78.5225 34.7224L77.2631 35.3324Z" fill="#294C96"/>
<path d="M96.0832 61.6784C96.6047 61.4243 97.1835 61.1898 97.8034 61.0127C97.7526 61.2209 97.7181 61.4308 97.7181 61.6473C97.7181 62.1491 97.8641 62.6148 98.1035 63.0182C96.6899 62.6246 95.6683 61.9637 95.6535 61.9555L95.055 62.8525C95.1517 62.9165 97.3836 64.3826 100.078 64.3826C100.147 64.3826 100.217 64.3809 100.288 64.3809C102.508 64.317 104.022 63.1067 104.622 62.5279C104.82 62.6672 105.06 62.8476 105.301 63.0674L106.024 62.2688C105.829 62.0917 105.637 61.9391 105.46 61.8063C105.876 61.4521 106.398 60.9585 106.737 60.4486L105.837 59.8516C105.496 60.3698 104.873 60.9044 104.501 61.2012C104.283 61.034 104.066 60.8618 103.838 60.7207C104.196 60.3977 104.563 60.0238 104.83 59.6352L103.941 59.0268C103.645 59.4581 103.167 59.8926 102.81 60.1894C102.493 60.0566 102.167 59.9517 101.836 59.8664C101.985 59.7073 102.131 59.5433 102.257 59.3728L101.388 58.7316C101.136 59.0727 100.795 59.3957 100.508 59.6483C98.9628 59.5368 97.3082 59.8861 95.6125 60.7093C94.5269 61.2373 94.0908 61.1389 94.0875 61.1373L93.707 62.1458C93.8841 62.2196 94.5762 62.4115 96.0832 61.6784ZM103 62.4328C103.077 62.1819 103.13 61.9228 103.13 61.6473C103.13 61.6112 103.117 61.5767 103.115 61.539C103.31 61.6522 103.504 61.7752 103.697 61.9162C103.522 62.0704 103.284 62.2524 103 62.4328ZM99.9385 60.6961C99.6236 60.8716 99.4006 61.1963 99.4006 61.5817C99.4006 62.1458 99.8598 62.6066 100.422 62.6066C100.99 62.6066 101.449 62.1458 101.449 61.5817C101.449 61.252 101.283 60.9716 101.04 60.783C101.327 60.8322 101.614 60.9028 101.903 60.9962C101.993 61.2012 102.052 61.4193 102.052 61.6456C102.052 62.5443 101.323 63.274 100.422 63.274C99.5269 63.274 98.7955 62.5443 98.7955 61.6456C98.7955 61.316 98.9103 61.0143 99.0923 60.7454C99.3695 60.7142 99.6532 60.6978 99.9385 60.6961Z" fill="#294C96"/>
<path d="M103.096 58.0461L103.578 57.0802C100.198 55.3911 96.879 57.0113 96.7412 57.0802L97.2233 58.0461C97.2512 58.0297 100.193 56.5981 103.096 58.0461Z" fill="#294C96"/>
<path d="M75.2787 61.8046C75.1016 61.9375 74.9081 62.0916 74.7146 62.2687L75.4378 63.0673C75.6788 62.8492 75.9183 62.6672 76.1167 62.5278C76.7185 63.1067 78.2305 64.3169 80.4525 64.3825C80.523 64.3825 80.5919 64.3841 80.6624 64.3841C83.3567 64.3841 85.5869 62.9181 85.6837 62.8541L85.0868 61.9571C85.0736 61.967 84.0569 62.6361 82.6352 63.028C82.8762 62.6229 83.0255 62.1539 83.0255 61.6489C83.0255 61.434 82.991 61.2225 82.9402 61.0142C83.5584 61.1913 84.1389 61.4258 84.6604 61.6784C86.1658 62.4114 86.8594 62.2195 87.0365 62.1457L86.6545 61.1372C86.6512 61.1405 86.2134 61.2356 85.131 60.7092C83.4026 59.8696 81.748 59.5138 80.2081 59.6286C79.9261 59.3793 79.5916 59.0578 79.3538 58.7332L78.4863 59.3743C78.6077 59.54 78.7487 59.7007 78.8946 59.8549C78.565 59.9418 78.2387 60.0467 77.9222 60.1828C77.5664 59.886 77.0924 59.4547 76.8022 59.0283L75.9134 59.6367C76.179 60.0237 76.5431 60.396 76.9005 60.719C76.6742 60.8601 76.4578 61.0339 76.2397 61.2028C75.8314 60.8765 75.2263 60.3403 74.9049 59.8549L74.0078 60.4501C74.3423 60.9568 74.8639 61.4504 75.2787 61.8046ZM77.0449 61.9178C77.2367 61.7784 77.4302 61.6554 77.6237 61.5423C77.6221 61.5783 77.6106 61.6128 77.6106 61.6472C77.6106 61.9211 77.6631 62.1785 77.7385 62.4278C77.4581 62.2491 77.2203 62.0687 77.0449 61.9178ZM81.648 60.7486C81.83 61.0191 81.9464 61.3209 81.9464 61.6472C81.9464 62.5459 81.215 63.2756 80.3164 63.2756C79.4177 63.2756 78.6864 62.5459 78.6864 61.6472C78.6864 61.4225 78.747 61.2028 78.8372 60.9995C79.1242 60.906 79.4128 60.8338 79.6981 60.7863C79.4587 60.9732 79.2931 61.2536 79.2931 61.5816C79.2931 62.1457 79.7523 62.6065 80.3147 62.6065C80.8821 62.6065 81.3413 62.1457 81.3413 61.5816C81.3413 61.1962 81.1199 60.8715 80.8034 60.6977C81.0888 60.6977 81.3708 60.7141 81.648 60.7486Z" fill="#294C96"/>
<path d="M83.5195 58.0461L84.0016 57.0802C83.8623 57.0113 80.5432 55.3911 77.165 57.0802L77.6472 58.0461C80.5382 56.5997 83.49 58.0297 83.5195 58.0461Z" fill="#294C96"/>
</svg>
